<?xml version="1.0" encoding="UTF-8"?>
<svg version="1.1" viewBox="0 0 122.88 112.51" xmlns="http://www.w3.org/2000/svg"><path d="m12.56 87.39c6.93 0 12.56 5.62 12.56 12.56 0 6.93-5.62 12.56-12.56 12.56-6.94-0.01-12.56-5.63-12.56-12.56 0-6.94 5.62-12.56 12.56-12.56zm22.51 0.85h86.38c0.79 0 1.43 0.64 1.43 1.43v19.93c0 0.79-0.64 1.43-1.43 1.43h-86.38c-0.79 0-1.43-0.64-1.43-1.43v-19.93c0-0.79 0.65-1.43 1.43-1.43zm0-43.54h86.38c0.79 0 1.43 0.64 1.43 1.43v19.93c0 0.79-0.64 1.43-1.43 1.43h-86.38c-0.79 0-1.43-0.64-1.43-1.43v-19.93c0-0.79 0.65-1.43 1.43-1.43zm0-43.54h86.38c0.79 0 1.43 0.64 1.43 1.43v19.93c0 0.79-0.64 1.43-1.43 1.43h-86.38c-0.79 0-1.43-0.64-1.43-1.43v-19.93c0-0.79 0.65-1.43 1.43-1.43zm-22.51 42.53c6.93 0 12.56 5.62 12.56 12.56 0 6.93-5.62 12.56-12.56 12.56-6.94 0-12.56-5.62-12.56-12.56 0-6.93 5.62-12.56 12.56-12.56zm0-43.69c6.93 0 12.56 5.62 12.56 12.56 0 6.93-5.62 12.56-12.56 12.56-6.94-0.01-12.56-5.63-12.56-12.56 0-6.94 5.62-12.56 12.56-12.56z"/></svg>
